<?xml version="1.0" encoding="UTF-8"?>
<svg id="Layer_1" data-name="Layer 1" xmlns="http://www.w3.org/2000/svg" viewBox="0 0 1080 1080">
  <defs>
    <style>
      .cls-1 {
        fill: #fff;
      }

      .cls-2 {
        fill: #b1d235;
      }

      .cls-3 {
        fill: #2e3a3a;
      }
    </style>
  </defs>
  <rect class="cls-3" y="-77.09" width="1080" height="1234.18" rx="48.55" ry="48.55"/>
  <g>
    <g>
      <path class="cls-2" d="M255.4,608.56h-9.32c-6.54,0-11.84-5.34-11.84-11.92v-19.83c0-6.58,5.3-11.92,11.84-11.92h9.32c6.54,0,11.84,5.34,11.84,11.92v19.83c0,6.58-5.3,11.92-11.84,11.92Z"/>
      <path class="cls-2" d="M291.15,608.56h-9.32c-6.54,0-11.84-5.34-11.84-11.92v-19.83c0-6.58,5.3-11.92,11.84-11.92h9.32c6.54,0,11.84,5.34,11.84,11.92v19.83c0,6.58-5.3,11.92-11.84,11.92Z"/>
      <path class="cls-2" d="M326.91,608.56h-9.32c-6.54,0-11.84-5.34-11.84-11.92v-19.83c0-6.58,5.3-11.92,11.84-11.92h9.32c6.54,0,11.84,5.34,11.84,11.92v19.83c0,6.58-5.3,11.92-11.84,11.92Z"/>
      <path class="cls-2" d="M255.4,562.12h-9.32c-6.54,0-11.84-5.34-11.84-11.92v-19.83c0-6.58,5.3-11.92,11.84-11.92h9.32c6.54,0,11.84,5.34,11.84,11.92v19.83c0,6.58-5.3,11.92-11.84,11.92Z"/>
      <path class="cls-2" d="M291.15,562.12h-9.32c-6.54,0-11.84-5.34-11.84-11.92v-19.83c0-6.58,5.3-11.92,11.84-11.92h9.32c6.54,0,11.84,5.34,11.84,11.92v19.83c0,6.58-5.3,11.92-11.84,11.92Z"/>
      <path class="cls-2" d="M326.91,562.12h-9.32c-6.54,0-11.84-5.34-11.84-11.92v-19.83c0-6.58,5.3-11.92,11.84-11.92h9.32c6.54,0,11.84,5.34,11.84,11.92v19.83c0,6.58-5.3,11.92-11.84,11.92Z"/>
      <path class="cls-2" d="M255.4,515.68h-9.32c-6.54,0-11.84-5.34-11.84-11.92v-19.83c0-6.58,5.3-11.92,11.84-11.92h9.32c6.54,0,11.84,5.34,11.84,11.92v19.83c0,6.58-5.3,11.92-11.84,11.92Z"/>
      <path class="cls-2" d="M291.15,515.68h-9.32c-6.54,0-11.84-5.34-11.84-11.92v-19.83c0-6.58,5.3-11.92,11.84-11.92h9.32c6.54,0,11.84,5.34,11.84,11.92v19.83c0,6.58-5.3,11.92-11.84,11.92Z"/>
      <path class="cls-2" d="M326.91,516.25h-9.32c-6.84,0-12.41-5.6-12.41-12.49v-19.83c0-6.89,5.57-12.49,12.41-12.49h9.32c6.84,0,12.41,5.6,12.41,12.49v19.83c0,6.89-5.57,12.49-12.41,12.49ZM317.59,472.58c-6.21,0-11.27,5.09-11.27,11.35v19.83c0,6.26,5.06,11.35,11.27,11.35h9.32c6.21,0,11.27-5.09,11.27-11.35v-19.83c0-6.26-5.06-11.35-11.27-11.35h-9.32Z"/>
    </g>
    <g>
      <path class="cls-2" d="M389.85,516.12h32.73c16.2,0,26.1,8.49,26.1,22.31,0,9.17-4.05,15.74-11.81,19.03,8.66,2.83,13.05,9.4,13.05,19.03,0,14.16-9.79,22.43-26.77,22.43h-33.3v-82.79ZM404.25,528.91v22.54h17.44c7.87,0,12.26-4.19,12.26-11.55s-4.5-10.99-12.6-10.99h-17.1ZM404.25,563.69v22.43h18.34c8.1,0,12.6-3.96,12.6-11.44,0-7.02-4.61-10.99-12.6-10.99h-18.34Z"/>
      <path class="cls-2" d="M459.48,523.36c0-4.64,3.71-8.27,8.44-8.27s8.21,3.62,8.21,8.27-3.71,8.38-8.21,8.38c-4.72,0-8.44-3.74-8.44-8.38ZM461.05,542.96h13.72v55.95h-13.72v-55.95Z"/>
      <path class="cls-2" d="M488.95,598.91v-55.95h12.71l1.13,7.25c3.49-5.66,10.24-8.95,17.77-8.95,13.95,0,21.15,8.72,21.15,23.22v34.43h-13.72v-31.15c0-9.4-4.61-13.93-11.7-13.93-8.44,0-13.61,5.89-13.61,14.95v30.13h-13.72Z"/>
      <path class="cls-2" d="M551.94,571.16c0-17.44,10.12-29.9,26.88-29.9,7.76,0,14.62,3.28,18.11,8.83v-35.45h13.61v84.27h-12.6l-.9-8.72c-3.37,6.46-10.57,10.19-19.01,10.19-16.09,0-26.1-11.89-26.1-29.22ZM596.82,570.71c0-10.08-6.19-17.1-15.75-17.1s-15.41,7.14-15.41,17.1,5.85,16.99,15.41,16.99,15.75-6.91,15.75-16.99Z"/>
      <path class="cls-2" d="M659.7,555.53h-5.06c-9.9,0-16.09,5.32-16.09,16.2v27.18h-13.72v-55.84h12.94l.79,8.15c2.36-5.55,7.65-9.29,15.07-9.29,1.91,0,3.82.23,6.07.79v12.8Z"/>
      <path class="cls-2" d="M659.7,591.32c0-4.98,4.16-9.06,9.11-9.06s9.11,4.08,9.11,9.06-4.16,8.95-9.11,8.95-9.11-4.08-9.11-8.95Z"/>
      <path class="cls-1" d="M691.76,542.96v-6.8c0-15.18,7.99-21.52,20.02-21.52,2.14,0,4.72.11,7.09.57v11.78h-4.84c-6.97,0-8.66,3.62-8.66,9.17v6.8h13.27v11.55h-13.27v44.4h-13.61v-44.4h-7.99v-11.55h7.99Z"/>
      <path class="cls-1" d="M778.83,542.96v55.95h-12.71l-1.01-7.48c-3.37,5.32-10.57,8.95-18,8.95-12.82,0-20.36-8.72-20.36-22.43v-35h13.72v30.13c0,10.65,4.16,14.95,11.81,14.95,8.66,0,12.82-5.1,12.82-15.74v-29.33h13.72Z"/>
      <path class="cls-1" d="M793,598.91v-55.95h12.71l1.13,7.25c3.49-5.66,10.24-8.95,17.77-8.95,13.95,0,21.15,8.72,21.15,23.22v34.43h-13.72v-31.15c0-9.4-4.61-13.93-11.7-13.93-8.44,0-13.61,5.89-13.61,14.95v30.13h-13.72Z"/>
    </g>
  </g>
</svg>