<?xml version="1.0" encoding="UTF-8"?>
<svg id="Layer_1" data-name="Layer 1" xmlns="http://www.w3.org/2000/svg" viewBox="370 321 340 438">
  <defs>
    <style>
      .cls-1 {
        fill: #b1d235;
      }

      .cls-2 {
        fill: #2e3a3a;
      }
    </style>
  </defs>
  <g>
    <path class="cls-1" d="M444.43,748.81h-28.38c-19.91,0-36.05-16.25-36.05-36.3v-60.38c0-20.05,16.14-36.3,36.05-36.3h28.38c19.91,0,36.05,16.25,36.05,36.3v60.38c0,20.05-16.14,36.3-36.05,36.3Z"/>
    <path class="cls-1" d="M553.32,748.81h-28.38c-19.91,0-36.05-16.25-36.05-36.3v-60.38c0-20.05,16.14-36.3,36.05-36.3h28.38c19.91,0,36.05,16.25,36.05,36.3v60.38c0,20.05-16.14,36.3-36.05,36.3Z"/>
    <path class="cls-1" d="M662.21,748.81h-28.38c-19.91,0-36.05-16.25-36.05-36.3v-60.38c0-20.05,16.14-36.3,36.05-36.3h28.38c19.91,0,36.05,16.25,36.05,36.3v60.38c0,20.05-16.14,36.3-36.05,36.3Z"/>
    <path class="cls-1" d="M444.43,607.36h-28.38c-19.91,0-36.05-16.25-36.05-36.3v-60.38c0-20.05,16.14-36.3,36.05-36.3h28.38c19.91,0,36.05,16.25,36.05,36.3v60.38c0,20.05-16.14,36.3-36.05,36.3Z"/>
    <path class="cls-1" d="M553.32,607.36h-28.38c-19.91,0-36.05-16.25-36.05-36.3v-60.38c0-20.05,16.14-36.3,36.05-36.3h28.38c19.91,0,36.05,16.25,36.05,36.3v60.38c0,20.05-16.14,36.3-36.05,36.3Z"/>
    <path class="cls-1" d="M662.21,607.36h-28.38c-19.91,0-36.05-16.25-36.05-36.3v-60.38c0-20.05,16.14-36.3,36.05-36.3h28.38c19.91,0,36.05,16.25,36.05,36.3v60.38c0,20.05-16.14,36.3-36.05,36.3Z"/>
    <path class="cls-1" d="M444.43,465.92h-28.38c-19.91,0-36.05-16.25-36.05-36.3v-60.38c0-20.05,16.14-36.3,36.05-36.3h28.38c19.91,0,36.05,16.25,36.05,36.3v60.38c0,20.05-16.14,36.3-36.05,36.3Z"/>
    <path class="cls-1" d="M553.32,465.92h-28.38c-19.91,0-36.05-16.25-36.05-36.3v-60.38c0-20.05,16.14-36.3,36.05-36.3h28.38c19.91,0,36.05,16.25,36.05,36.3v60.38c0,20.05-16.14,36.3-36.05,36.3Z"/>
    <path class="cls-1" d="M662.21,467.66h-28.38c-20.83,0-37.79-17.07-37.79-38.05v-60.38c0-20.98,16.95-38.05,37.79-38.05h28.38c20.84,0,37.79,17.07,37.79,38.05v60.38c0,20.98-16.95,38.05-37.79,38.05ZM633.83,334.68c-18.92,0-34.32,15.5-34.32,34.56v60.38c0,19.06,15.4,34.56,34.32,34.56h28.38c18.93,0,34.32-15.5,34.32-34.56v-60.38c0-19.06-15.4-34.56-34.32-34.56h-28.38Z"/>
  </g>
</svg>
